<svg width="376" height="259" viewBox="0 0 376 259" fill="none" xmlns="http://www.w3.org/2000/svg">
<g filter="url(#filter0_ddd_75_23460)">
<rect x="39" y="37" width="298" height="179.6" rx="18.2" fill="white"/>
<path d="M67.664 139.107H72.6768C73.5088 139.107 74.2784 139.294 74.9856 139.669C75.6928 140.043 76.2544 140.57 76.6704 141.25C77.1003 141.915 77.3152 142.671 77.3152 143.517C77.3152 144.363 77.1003 145.125 76.6704 145.805C76.2544 146.47 75.6928 146.99 74.9856 147.365C74.2784 147.739 73.5088 147.926 72.6768 147.926H69.4112V154H67.664V139.107ZM72.7184 146.242C73.2731 146.242 73.7584 146.11 74.1744 145.846C74.6043 145.583 74.9371 145.243 75.1728 144.827C75.4085 144.411 75.5264 143.974 75.5264 143.517C75.5264 143.059 75.4085 142.622 75.1728 142.206C74.9371 141.79 74.6043 141.451 74.1744 141.187C73.7584 140.924 73.2731 140.792 72.7184 140.792H69.4112V146.242H72.7184ZM79.2948 143.392H80.9796V145.098H81.0628C81.2708 144.515 81.6729 144.037 82.2692 143.662C82.8654 143.274 83.4894 143.08 84.1412 143.08C84.6265 143.08 85.0425 143.149 85.3892 143.288V145.202C84.9454 144.98 84.4462 144.869 83.8916 144.869C83.3785 144.869 82.907 145.014 82.4772 145.306C82.0473 145.597 81.7006 145.992 81.4372 146.491C81.1876 146.977 81.0628 147.503 81.0628 148.072V154H79.2948V143.392ZM91.1867 154.333C90.1744 154.333 89.2662 154.09 88.4619 153.605C87.6576 153.119 87.0267 152.454 86.5691 151.608C86.1254 150.748 85.9035 149.785 85.9035 148.717C85.9035 147.691 86.1115 146.748 86.5275 145.888C86.9574 145.028 87.5606 144.342 88.3371 143.829C89.1136 143.316 90.015 143.059 91.0411 143.059C92.0811 143.059 92.9824 143.295 93.7451 143.766C94.5078 144.224 95.0902 144.862 95.4923 145.68C95.9083 146.498 96.1163 147.434 96.1163 148.488C96.1163 148.696 96.0955 148.876 96.0539 149.029H87.6715C87.7131 149.833 87.9072 150.513 88.2539 151.067C88.6006 151.622 89.0374 152.038 89.5643 152.315C90.1051 152.593 90.6667 152.731 91.2491 152.731C92.608 152.731 93.655 152.093 94.3899 150.818L95.8875 151.546C95.4299 152.405 94.8059 153.085 94.0155 153.584C93.239 154.083 92.296 154.333 91.1867 154.333ZM94.2443 147.573C94.2166 147.129 94.0918 146.685 93.8699 146.242C93.648 145.798 93.2944 145.423 92.8091 145.118C92.3376 144.813 91.7414 144.661 91.0203 144.661C90.1883 144.661 89.4811 144.931 88.8987 145.472C88.3302 145.999 87.9558 146.699 87.7755 147.573H94.2443ZM98.1022 143.392H99.787V144.973H99.8702C100.189 144.432 100.668 143.981 101.305 143.621C101.957 143.246 102.685 143.059 103.489 143.059C104.432 143.059 105.292 143.302 106.069 143.787C106.845 144.273 107.455 144.945 107.899 145.805C108.343 146.665 108.565 147.628 108.565 148.696C108.565 149.778 108.343 150.748 107.899 151.608C107.455 152.454 106.845 153.119 106.069 153.605C105.292 154.09 104.432 154.333 103.489 154.333C102.685 154.333 101.957 154.153 101.305 153.792C100.668 153.418 100.189 152.967 99.8702 152.44H99.787L99.8702 153.896V158.493H98.1022V143.392ZM103.281 152.731C103.892 152.731 104.467 152.565 105.008 152.232C105.549 151.899 105.978 151.428 106.297 150.818C106.63 150.194 106.797 149.486 106.797 148.696C106.797 147.906 106.63 147.205 106.297 146.595C105.978 145.971 105.549 145.493 105.008 145.16C104.467 144.827 103.892 144.661 103.281 144.661C102.671 144.661 102.096 144.827 101.555 145.16C101.014 145.493 100.584 145.964 100.265 146.574C99.9465 147.185 99.787 147.892 99.787 148.696C99.787 149.5 99.9465 150.207 100.265 150.818C100.584 151.428 101.014 151.899 101.555 152.232C102.096 152.565 102.671 152.731 103.281 152.731ZM114.007 154.333C113.231 154.333 112.537 154.18 111.927 153.875C111.317 153.57 110.845 153.154 110.513 152.627C110.18 152.086 110.013 151.476 110.013 150.797C110.013 149.674 110.436 148.8 111.282 148.176C112.128 147.538 113.196 147.219 114.485 147.219C115.123 147.219 115.713 147.289 116.253 147.427C116.808 147.566 117.231 147.725 117.522 147.906V147.261C117.522 146.47 117.245 145.839 116.69 145.368C116.136 144.883 115.435 144.64 114.589 144.64C113.993 144.64 113.445 144.772 112.946 145.035C112.447 145.285 112.052 145.638 111.761 146.096L110.429 145.098C110.845 144.46 111.414 143.961 112.135 143.6C112.87 143.239 113.681 143.059 114.569 143.059C116.011 143.059 117.141 143.441 117.959 144.203C118.791 144.952 119.207 145.978 119.207 147.282V154H117.522V152.482H117.439C117.134 152.995 116.676 153.431 116.066 153.792C115.456 154.153 114.77 154.333 114.007 154.333ZM114.173 152.773C114.77 152.773 115.324 152.62 115.837 152.315C116.351 152.01 116.76 151.601 117.065 151.088C117.37 150.575 117.522 150.013 117.522 149.403C117.189 149.181 116.78 149.001 116.295 148.862C115.81 148.724 115.297 148.654 114.756 148.654C113.785 148.654 113.05 148.855 112.551 149.258C112.066 149.66 111.823 150.18 111.823 150.818C111.823 151.4 112.045 151.871 112.489 152.232C112.932 152.593 113.494 152.773 114.173 152.773ZM121.667 143.392H123.351V145.098H123.435C123.643 144.515 124.045 144.037 124.641 143.662C125.237 143.274 125.861 143.08 126.513 143.08C126.998 143.08 127.414 143.149 127.761 143.288V145.202C127.317 144.98 126.818 144.869 126.263 144.869C125.75 144.869 125.279 145.014 124.849 145.306C124.419 145.597 124.073 145.992 123.809 146.491C123.559 146.977 123.435 147.503 123.435 148.072V154H121.667V143.392ZM133.559 154.333C132.546 154.333 131.638 154.09 130.834 153.605C130.029 153.119 129.399 152.454 128.941 151.608C128.497 150.748 128.275 149.785 128.275 148.717C128.275 147.691 128.483 146.748 128.899 145.888C129.329 145.028 129.932 144.342 130.709 143.829C131.485 143.316 132.387 143.059 133.413 143.059C134.453 143.059 135.354 143.295 136.117 143.766C136.88 144.224 137.462 144.862 137.864 145.68C138.28 146.498 138.488 147.434 138.488 148.488C138.488 148.696 138.467 148.876 138.426 149.029H130.043C130.085 149.833 130.279 150.513 130.626 151.067C130.972 151.622 131.409 152.038 131.936 152.315C132.477 152.593 133.039 152.731 133.621 152.731C134.98 152.731 136.027 152.093 136.762 150.818L138.259 151.546C137.802 152.405 137.178 153.085 136.387 153.584C135.611 154.083 134.668 154.333 133.559 154.333ZM136.616 147.573C136.588 147.129 136.464 146.685 136.242 146.242C136.02 145.798 135.666 145.423 135.181 145.118C134.709 144.813 134.113 144.661 133.392 144.661C132.56 144.661 131.853 144.931 131.271 145.472C130.702 145.999 130.328 146.699 130.147 147.573H136.616ZM146.213 144.994H144.257V143.392H146.213V142.248C146.213 141.582 146.365 141 146.67 140.501C146.975 140.002 147.384 139.62 147.897 139.357C148.41 139.079 148.979 138.941 149.603 138.941C150.199 138.941 150.719 139.024 151.163 139.19V140.917C150.913 140.82 150.678 140.743 150.456 140.688C150.234 140.619 149.97 140.584 149.665 140.584C149.208 140.584 148.813 140.75 148.48 141.083C148.147 141.402 147.981 141.853 147.981 142.435V143.392H150.705V144.994H147.981V154H146.213V144.994ZM157.105 154.333C156.065 154.333 155.129 154.083 154.297 153.584C153.465 153.085 152.813 152.405 152.341 151.546C151.884 150.686 151.655 149.736 151.655 148.696C151.655 147.656 151.884 146.706 152.341 145.846C152.813 144.987 153.465 144.307 154.297 143.808C155.129 143.309 156.065 143.059 157.105 143.059C158.145 143.059 159.081 143.309 159.913 143.808C160.745 144.307 161.389 144.987 161.847 145.846C162.319 146.706 162.554 147.656 162.554 148.696C162.554 149.736 162.319 150.686 161.847 151.546C161.389 152.405 160.745 153.085 159.913 153.584C159.081 154.083 158.145 154.333 157.105 154.333ZM157.105 152.731C157.756 152.731 158.36 152.572 158.914 152.253C159.483 151.92 159.933 151.449 160.266 150.838C160.613 150.228 160.786 149.514 160.786 148.696C160.786 147.878 160.613 147.164 160.266 146.554C159.933 145.943 159.483 145.479 158.914 145.16C158.36 144.827 157.756 144.661 157.105 144.661C156.453 144.661 155.843 144.827 155.274 145.16C154.706 145.479 154.248 145.943 153.901 146.554C153.569 147.164 153.402 147.878 153.402 148.696C153.402 149.514 153.569 150.228 153.901 150.838C154.248 151.449 154.706 151.92 155.274 152.253C155.843 152.572 156.453 152.731 157.105 152.731ZM164.404 143.392H166.089V145.098H166.172C166.38 144.515 166.782 144.037 167.379 143.662C167.975 143.274 168.599 143.08 169.251 143.08C169.736 143.08 170.152 143.149 170.499 143.288V145.202C170.055 144.98 169.556 144.869 169.001 144.869C168.488 144.869 168.016 145.014 167.587 145.306C167.157 145.597 166.81 145.992 166.547 146.491C166.297 146.977 166.172 147.503 166.172 148.072V154H164.404V143.392ZM180.283 153.334L175.895 143.392H177.808L181.136 151.275H181.178L184.381 143.392H186.295L179.743 158.493H177.912L180.283 153.334ZM192.245 154.333C191.205 154.333 190.269 154.083 189.437 153.584C188.605 153.085 187.954 152.405 187.482 151.546C187.024 150.686 186.796 149.736 186.796 148.696C186.796 147.656 187.024 146.706 187.482 145.846C187.954 144.987 188.605 144.307 189.437 143.808C190.269 143.309 191.205 143.059 192.245 143.059C193.285 143.059 194.221 143.309 195.053 143.808C195.885 144.307 196.53 144.987 196.988 145.846C197.459 146.706 197.695 147.656 197.695 148.696C197.695 149.736 197.459 150.686 196.988 151.546C196.53 152.405 195.885 153.085 195.053 153.584C194.221 154.083 193.285 154.333 192.245 154.333ZM192.245 152.731C192.897 152.731 193.5 152.572 194.055 152.253C194.623 151.92 195.074 151.449 195.407 150.838C195.754 150.228 195.927 149.514 195.927 148.696C195.927 147.878 195.754 147.164 195.407 146.554C195.074 145.943 194.623 145.479 194.055 145.16C193.5 144.827 192.897 144.661 192.245 144.661C191.594 144.661 190.983 144.827 190.415 145.16C189.846 145.479 189.389 145.943 189.042 146.554C188.709 147.164 188.543 147.878 188.543 148.696C188.543 149.514 188.709 150.228 189.042 150.838C189.389 151.449 189.846 151.92 190.415 152.253C190.983 152.572 191.594 152.731 192.245 152.731ZM203.494 154.333C202.219 154.333 201.241 153.958 200.562 153.21C199.896 152.461 199.563 151.414 199.563 150.069V143.392H201.331V149.798C201.331 150.811 201.56 151.553 202.018 152.024C202.475 152.495 203.092 152.731 203.869 152.731C204.465 152.731 204.992 152.572 205.45 152.253C205.921 151.934 206.282 151.518 206.531 151.005C206.795 150.492 206.926 149.951 206.926 149.382V143.392H208.694V154H207.01V152.461H206.926C206.635 152.988 206.171 153.431 205.533 153.792C204.895 154.153 204.215 154.333 203.494 154.333ZM211.306 143.392H212.991V145.098H213.074C213.282 144.515 213.684 144.037 214.28 143.662C214.876 143.274 215.5 143.08 216.152 143.08C216.637 143.08 217.053 143.149 217.4 143.288V145.202C216.956 144.98 216.457 144.869 215.903 144.869C215.389 144.869 214.918 145.014 214.488 145.306C214.058 145.597 213.712 145.992 213.448 146.491C213.199 146.977 213.074 147.503 213.074 148.072V154H211.306V143.392ZM223.94 143.392H225.625V144.952H225.708C225.999 144.425 226.464 143.981 227.102 143.621C227.74 143.246 228.419 143.059 229.14 143.059C230.416 143.059 231.387 143.434 232.052 144.182C232.732 144.917 233.071 145.923 233.071 147.198V154H231.303V147.469C231.303 146.484 231.068 145.77 230.596 145.326C230.125 144.883 229.48 144.661 228.662 144.661C228.093 144.661 227.58 144.82 227.123 145.139C226.679 145.458 226.332 145.881 226.083 146.408C225.833 146.921 225.708 147.462 225.708 148.03V154H223.94V143.392ZM240.321 154.333C239.309 154.333 238.401 154.09 237.596 153.605C236.792 153.119 236.161 152.454 235.703 151.608C235.26 150.748 235.038 149.785 235.038 148.717C235.038 147.691 235.246 146.748 235.662 145.888C236.092 145.028 236.695 144.342 237.471 143.829C238.248 143.316 239.149 143.059 240.175 143.059C241.215 143.059 242.117 143.295 242.879 143.766C243.642 144.224 244.225 144.862 244.627 145.68C245.043 146.498 245.251 147.434 245.251 148.488C245.251 148.696 245.23 148.876 245.188 149.029H236.806C236.847 149.833 237.042 150.513 237.388 151.067C237.735 151.622 238.172 152.038 238.699 152.315C239.239 152.593 239.801 152.731 240.383 152.731C241.742 152.731 242.789 152.093 243.524 150.818L245.022 151.546C244.564 152.405 243.94 153.085 243.15 153.584C242.373 154.083 241.43 154.333 240.321 154.333ZM243.379 147.573C243.351 147.129 243.226 146.685 243.004 146.242C242.782 145.798 242.429 145.423 241.943 145.118C241.472 144.813 240.876 144.661 240.155 144.661C239.323 144.661 238.615 144.931 238.033 145.472C237.465 145.999 237.09 146.699 236.91 147.573H243.379ZM249.821 148.613L246.139 143.392H248.136L250.881 147.323L253.523 143.392H255.582L251.88 148.613L255.665 154H253.606L250.84 149.923L248.136 154H246.077L249.821 148.613ZM261.329 154.166C260.9 154.166 260.497 154.097 260.123 153.958C259.762 153.82 259.457 153.633 259.208 153.397C258.93 153.133 258.722 152.828 258.584 152.482C258.445 152.135 258.376 151.712 258.376 151.213V144.994H256.525V143.392H258.376V140.397H260.144V143.392H262.723V144.994H260.144V150.776C260.144 151.358 260.255 151.788 260.477 152.066C260.74 152.371 261.121 152.523 261.621 152.523C262.023 152.523 262.411 152.405 262.785 152.17V153.896C262.577 153.993 262.362 154.062 262.141 154.104C261.933 154.146 261.662 154.166 261.329 154.166ZM277.837 153.896L277.92 152.44H277.837C277.504 152.967 277.019 153.418 276.381 153.792C275.743 154.153 275.015 154.333 274.197 154.333C273.254 154.333 272.394 154.09 271.618 153.605C270.855 153.119 270.252 152.454 269.808 151.608C269.364 150.748 269.143 149.778 269.143 148.696C269.143 147.628 269.364 146.665 269.808 145.805C270.252 144.945 270.855 144.273 271.618 143.787C272.394 143.302 273.254 143.059 274.197 143.059C275.015 143.059 275.743 143.246 276.381 143.621C277.019 143.981 277.504 144.432 277.837 144.973H277.92V143.392H279.605V158.493H277.837V153.896ZM274.405 152.731C275.029 152.731 275.604 152.565 276.131 152.232C276.672 151.899 277.102 151.428 277.421 150.818C277.754 150.207 277.92 149.5 277.92 148.696C277.92 147.892 277.754 147.185 277.421 146.574C277.102 145.964 276.672 145.493 276.131 145.16C275.604 144.827 275.029 144.661 274.405 144.661C273.795 144.661 273.219 144.827 272.679 145.16C272.138 145.493 271.701 145.971 271.368 146.595C271.049 147.205 270.89 147.906 270.89 148.696C270.89 149.486 271.049 150.194 271.368 150.818C271.701 151.428 272.138 151.899 272.679 152.232C273.219 152.565 273.795 152.731 274.405 152.731ZM285.983 154.333C284.708 154.333 283.73 153.958 283.051 153.21C282.385 152.461 282.052 151.414 282.052 150.069V143.392H283.82V149.798C283.82 150.811 284.049 151.553 284.507 152.024C284.964 152.495 285.581 152.731 286.358 152.731C286.954 152.731 287.481 152.572 287.939 152.253C288.41 151.934 288.771 151.518 289.02 151.005C289.284 150.492 289.415 149.951 289.415 149.382V143.392H291.183V154H289.499V152.461H289.415C289.124 152.988 288.66 153.431 288.022 153.792C287.384 154.153 286.704 154.333 285.983 154.333ZM294.835 141.437C294.488 141.437 294.19 141.312 293.94 141.062C293.691 140.813 293.566 140.515 293.566 140.168C293.566 139.821 293.691 139.53 293.94 139.294C294.19 139.045 294.488 138.92 294.835 138.92C295.181 138.92 295.48 139.045 295.729 139.294C295.979 139.53 296.104 139.821 296.104 140.168C296.104 140.515 295.979 140.813 295.729 141.062C295.493 141.312 295.195 141.437 294.835 141.437ZM293.961 143.392H295.708V154H293.961V143.392ZM297.946 152.482L304.207 144.994H298.133V143.392H306.37V144.91L300.089 152.398H306.537V154H297.946V152.482ZM66.1456 172.392H67.9552L70.4928 180.774H70.5136L73.176 172.392H75.0064L77.6896 180.754H77.7104L80.2272 172.392H82.016L78.584 183H76.7952L74.0496 174.534L71.3248 183H69.5568L66.1456 172.392ZM84.5192 170.437C84.1725 170.437 83.8744 170.312 83.6248 170.062C83.3752 169.813 83.2504 169.515 83.2504 169.168C83.2504 168.821 83.3752 168.53 83.6248 168.294C83.8744 168.045 84.1725 167.92 84.5192 167.92C84.8658 167.92 85.164 168.045 85.4136 168.294C85.6632 168.53 85.788 168.821 85.788 169.168C85.788 169.515 85.6632 169.813 85.4136 170.062C85.1778 170.312 84.8797 170.437 84.5192 170.437ZM83.6456 172.392H85.3928V183H83.6456V172.392ZM92.1466 183.166C91.7167 183.166 91.3146 183.097 90.9402 182.958C90.5796 182.82 90.2746 182.633 90.025 182.397C89.7476 182.133 89.5396 181.828 89.401 181.482C89.2623 181.135 89.193 180.712 89.193 180.213V173.994H87.3418V172.392H89.193V169.397H90.961V172.392H93.5402V173.994H90.961V179.776C90.961 180.358 91.0719 180.788 91.2938 181.066C91.5572 181.371 91.9386 181.523 92.4378 181.523C92.8399 181.523 93.2282 181.405 93.6026 181.17V182.896C93.3946 182.993 93.1796 183.062 92.9578 183.104C92.7498 183.146 92.4794 183.166 92.1466 183.166ZM95.7885 168.107H97.5565V172.496L97.4733 173.952H97.5565C97.8477 173.411 98.3053 172.961 98.9293 172.6C99.5672 172.239 100.261 172.059 101.009 172.059C102.299 172.059 103.283 172.441 103.963 173.203C104.642 173.952 104.982 174.95 104.982 176.198V183H103.214V176.469C103.214 175.512 102.971 174.805 102.486 174.347C102.001 173.89 101.37 173.661 100.593 173.661C100.039 173.661 99.5256 173.827 99.0541 174.16C98.5965 174.493 98.2291 174.923 97.9517 175.45C97.6883 175.977 97.5565 176.524 97.5565 177.093V183H95.7885V168.107ZM122.856 182.438C121.733 183.035 120.52 183.333 119.216 183.333C117.788 183.333 116.492 182.986 115.327 182.293C114.162 181.599 113.247 180.663 112.581 179.485C111.916 178.292 111.583 176.982 111.583 175.554C111.583 174.139 111.916 172.836 112.581 171.643C113.247 170.451 114.162 169.508 115.327 168.814C116.492 168.121 117.788 167.774 119.216 167.774C120.645 167.774 121.941 168.121 123.106 168.814C124.271 169.508 125.186 170.451 125.852 171.643C126.531 172.836 126.871 174.139 126.871 175.554C126.871 176.732 126.635 177.842 126.164 178.882C125.706 179.908 125.054 180.781 124.208 181.502L125.248 183.042L123.876 183.936L122.856 182.438ZM119.216 181.648C120.146 181.648 121.04 181.433 121.9 181.003L120.09 178.299L121.463 177.363L123.252 180.046C123.82 179.506 124.264 178.854 124.583 178.091C124.902 177.315 125.061 176.469 125.061 175.554C125.061 174.375 124.798 173.328 124.271 172.413C123.758 171.484 123.051 170.763 122.149 170.25C121.262 169.723 120.284 169.459 119.216 169.459C118.149 169.459 117.171 169.723 116.284 170.25C115.396 170.763 114.689 171.484 114.162 172.413C113.635 173.342 113.372 174.389 113.372 175.554C113.372 176.718 113.635 177.765 114.162 178.694C114.689 179.623 115.396 180.351 116.284 180.878C117.171 181.391 118.149 181.648 119.216 181.648ZM132.969 183.333C131.694 183.333 130.716 182.958 130.037 182.21C129.371 181.461 129.038 180.414 129.038 179.069V172.392H130.806V178.798C130.806 179.811 131.035 180.553 131.493 181.024C131.95 181.495 132.567 181.731 133.344 181.731C133.94 181.731 134.467 181.572 134.925 181.253C135.396 180.934 135.757 180.518 136.006 180.005C136.27 179.492 136.401 178.951 136.401 178.382V172.392H138.169V183H136.485V181.461H136.401C136.11 181.988 135.646 182.431 135.008 182.792C134.37 183.153 133.69 183.333 132.969 183.333ZM145.401 183.333C144.388 183.333 143.48 183.09 142.676 182.605C141.872 182.119 141.241 181.454 140.783 180.608C140.339 179.748 140.118 178.785 140.118 177.717C140.118 176.691 140.326 175.748 140.742 174.888C141.171 174.028 141.775 173.342 142.551 172.829C143.328 172.316 144.229 172.059 145.255 172.059C146.295 172.059 147.196 172.295 147.959 172.766C148.722 173.224 149.304 173.862 149.706 174.68C150.122 175.498 150.33 176.434 150.33 177.488C150.33 177.696 150.31 177.876 150.268 178.029H141.886C141.927 178.833 142.121 179.513 142.468 180.067C142.815 180.622 143.251 181.038 143.778 181.315C144.319 181.593 144.881 181.731 145.463 181.731C146.822 181.731 147.869 181.093 148.604 179.818L150.102 180.546C149.644 181.405 149.02 182.085 148.23 182.584C147.453 183.083 146.51 183.333 145.401 183.333ZM148.458 176.573C148.431 176.129 148.306 175.685 148.084 175.242C147.862 174.798 147.508 174.423 147.023 174.118C146.552 173.813 145.955 173.661 145.234 173.661C144.402 173.661 143.695 173.931 143.113 174.472C142.544 174.999 142.17 175.699 141.99 176.573H148.458ZM156.203 183.333C155.066 183.333 154.116 183.069 153.354 182.542C152.591 182.002 152.05 181.315 151.731 180.483L153.312 179.776C153.576 180.414 153.964 180.906 154.477 181.253C155.004 181.599 155.579 181.773 156.203 181.773C156.869 181.773 157.438 181.641 157.909 181.378C158.38 181.1 158.616 180.712 158.616 180.213C158.616 179.769 158.429 179.415 158.055 179.152C157.68 178.875 157.091 178.639 156.287 178.445L154.997 178.112C154.151 177.904 153.458 177.55 152.917 177.051C152.376 176.552 152.106 175.907 152.106 175.117C152.106 174.507 152.286 173.973 152.647 173.515C153.021 173.044 153.513 172.683 154.123 172.434C154.734 172.184 155.392 172.059 156.099 172.059C157.028 172.059 157.854 172.26 158.575 172.662C159.31 173.065 159.83 173.626 160.135 174.347L158.595 175.054C158.124 174.111 157.285 173.64 156.079 173.64C155.496 173.64 154.983 173.779 154.539 174.056C154.11 174.319 153.895 174.659 153.895 175.075C153.895 175.463 154.047 175.782 154.352 176.032C154.657 176.268 155.115 176.462 155.725 176.614L157.264 177.01C158.304 177.273 159.088 177.668 159.615 178.195C160.142 178.708 160.405 179.339 160.405 180.088C160.405 180.74 160.218 181.315 159.843 181.814C159.469 182.3 158.963 182.674 158.325 182.938C157.687 183.201 156.98 183.333 156.203 183.333ZM166.308 183.166C165.878 183.166 165.476 183.097 165.101 182.958C164.741 182.82 164.436 182.633 164.186 182.397C163.909 182.133 163.701 181.828 163.562 181.482C163.423 181.135 163.354 180.712 163.354 180.213V173.994H161.503V172.392H163.354V169.397H165.122V172.392H167.701V173.994H165.122V179.776C165.122 180.358 165.233 180.788 165.455 181.066C165.718 181.371 166.1 181.523 166.599 181.523C167.001 181.523 167.389 181.405 167.764 181.17V182.896C167.556 182.993 167.341 183.062 167.119 183.104C166.911 183.146 166.64 183.166 166.308 183.166ZM170.989 170.437C170.643 170.437 170.345 170.312 170.095 170.062C169.845 169.813 169.721 169.515 169.721 169.168C169.721 168.821 169.845 168.53 170.095 168.294C170.345 168.045 170.643 167.92 170.989 167.92C171.336 167.92 171.634 168.045 171.884 168.294C172.133 168.53 172.258 168.821 172.258 169.168C172.258 169.515 172.133 169.813 171.884 170.062C171.648 170.312 171.35 170.437 170.989 170.437ZM170.116 172.392H171.863V183H170.116V172.392ZM179.428 183.333C178.388 183.333 177.452 183.083 176.62 182.584C175.788 182.085 175.136 181.405 174.665 180.546C174.207 179.686 173.978 178.736 173.978 177.696C173.978 176.656 174.207 175.706 174.665 174.846C175.136 173.987 175.788 173.307 176.62 172.808C177.452 172.309 178.388 172.059 179.428 172.059C180.468 172.059 181.404 172.309 182.236 172.808C183.068 173.307 183.713 173.987 184.17 174.846C184.642 175.706 184.878 176.656 184.878 177.696C184.878 178.736 184.642 179.686 184.17 180.546C183.713 181.405 183.068 182.085 182.236 182.584C181.404 183.083 180.468 183.333 179.428 183.333ZM179.428 181.731C180.08 181.731 180.683 181.572 181.238 181.253C181.806 180.92 182.257 180.449 182.59 179.838C182.936 179.228 183.11 178.514 183.11 177.696C183.11 176.878 182.936 176.164 182.59 175.554C182.257 174.943 181.806 174.479 181.238 174.16C180.683 173.827 180.08 173.661 179.428 173.661C178.776 173.661 178.166 173.827 177.598 174.16C177.029 174.479 176.572 174.943 176.225 175.554C175.892 176.164 175.726 176.878 175.726 177.696C175.726 178.514 175.892 179.228 176.225 179.838C176.572 180.449 177.029 180.92 177.598 181.253C178.166 181.572 178.776 181.731 179.428 181.731ZM186.728 172.392H188.412V173.952H188.496C188.787 173.425 189.251 172.981 189.889 172.621C190.527 172.246 191.207 172.059 191.928 172.059C193.203 172.059 194.174 172.434 194.84 173.182C195.519 173.917 195.859 174.923 195.859 176.198V183H194.091V176.469C194.091 175.484 193.855 174.77 193.384 174.326C192.912 173.883 192.267 173.661 191.449 173.661C190.881 173.661 190.368 173.82 189.91 174.139C189.466 174.458 189.12 174.881 188.87 175.408C188.62 175.921 188.496 176.462 188.496 177.03V183H186.728V172.392ZM201.988 183.333C200.851 183.333 199.901 183.069 199.138 182.542C198.376 182.002 197.835 181.315 197.516 180.483L199.097 179.776C199.36 180.414 199.748 180.906 200.261 181.253C200.788 181.599 201.364 181.773 201.988 181.773C202.653 181.773 203.222 181.641 203.693 181.378C204.165 181.1 204.401 180.712 204.401 180.213C204.401 179.769 204.213 179.415 203.839 179.152C203.465 178.875 202.875 178.639 202.071 178.445L200.781 178.112C199.936 177.904 199.242 177.55 198.701 177.051C198.161 176.552 197.89 175.907 197.89 175.117C197.89 174.507 198.07 173.973 198.431 173.515C198.805 173.044 199.298 172.683 199.908 172.434C200.518 172.184 201.177 172.059 201.884 172.059C202.813 172.059 203.638 172.26 204.359 172.662C205.094 173.065 205.614 173.626 205.919 174.347L204.38 175.054C203.908 174.111 203.069 173.64 201.863 173.64C201.281 173.64 200.768 173.779 200.324 174.056C199.894 174.319 199.679 174.659 199.679 175.075C199.679 175.463 199.832 175.782 200.137 176.032C200.442 176.268 200.899 176.462 201.509 176.614L203.049 177.01C204.089 177.273 204.872 177.668 205.399 178.195C205.926 178.708 206.189 179.339 206.189 180.088C206.189 180.74 206.002 181.315 205.628 181.814C205.253 182.3 204.747 182.674 204.109 182.938C203.472 183.201 202.764 183.333 201.988 183.333ZM222.373 180.483L223.788 182.334L222.457 183.333L221.396 181.918C220.425 182.861 219.267 183.333 217.922 183.333C216.938 183.333 216.029 183.104 215.197 182.646C214.379 182.189 213.728 181.565 213.242 180.774C212.771 179.97 212.535 179.083 212.535 178.112C212.535 177.238 212.771 176.413 213.242 175.637C213.714 174.846 214.352 174.202 215.156 173.702L215.135 173.682C214.774 173.21 214.504 172.78 214.324 172.392C214.144 171.99 214.053 171.581 214.053 171.165C214.053 170.555 214.213 169.993 214.532 169.48C214.851 168.953 215.281 168.537 215.821 168.232C216.362 167.927 216.952 167.774 217.589 167.774C218.421 167.774 219.122 168.017 219.69 168.502C220.259 168.974 220.661 169.57 220.897 170.291L219.378 171.102C219.198 170.631 218.969 170.243 218.692 169.938C218.428 169.619 218.061 169.459 217.589 169.459C217.076 169.459 216.653 169.619 216.321 169.938C215.988 170.243 215.821 170.652 215.821 171.165C215.821 171.678 215.995 172.156 216.341 172.6L221.354 179.152L222.727 176.802L224.121 177.634L222.373 180.483ZM217.922 181.731C218.934 181.731 219.766 181.364 220.418 180.629L216.133 174.992C215.537 175.311 215.059 175.755 214.698 176.323C214.338 176.878 214.157 177.467 214.157 178.091C214.157 178.785 214.324 179.409 214.657 179.963C214.989 180.518 215.44 180.955 216.009 181.274C216.591 181.579 217.229 181.731 217.922 181.731ZM234.237 183.333C233.46 183.333 232.767 183.18 232.157 182.875C231.547 182.57 231.075 182.154 230.742 181.627C230.41 181.086 230.243 180.476 230.243 179.797C230.243 178.674 230.666 177.8 231.512 177.176C232.358 176.538 233.426 176.219 234.715 176.219C235.353 176.219 235.942 176.289 236.483 176.427C237.038 176.566 237.461 176.725 237.752 176.906V176.261C237.752 175.47 237.475 174.839 236.92 174.368C236.365 173.883 235.665 173.64 234.819 173.64C234.223 173.64 233.675 173.772 233.176 174.035C232.677 174.285 232.282 174.638 231.99 175.096L230.659 174.098C231.075 173.46 231.644 172.961 232.365 172.6C233.1 172.239 233.911 172.059 234.798 172.059C236.24 172.059 237.371 172.441 238.189 173.203C239.021 173.952 239.437 174.978 239.437 176.282V183H237.752V181.482H237.669C237.364 181.995 236.906 182.431 236.296 182.792C235.686 183.153 234.999 183.333 234.237 183.333ZM234.403 181.773C234.999 181.773 235.554 181.62 236.067 181.315C236.58 181.01 236.989 180.601 237.294 180.088C237.599 179.575 237.752 179.013 237.752 178.403C237.419 178.181 237.01 178.001 236.525 177.862C236.039 177.724 235.526 177.654 234.986 177.654C234.015 177.654 233.28 177.855 232.781 178.258C232.295 178.66 232.053 179.18 232.053 179.818C232.053 180.4 232.275 180.871 232.718 181.232C233.162 181.593 233.724 181.773 234.403 181.773ZM241.896 172.392H243.581V173.952H243.664C243.956 173.425 244.42 172.981 245.058 172.621C245.696 172.246 246.375 172.059 247.096 172.059C248.372 172.059 249.343 172.434 250.008 173.182C250.688 173.917 251.028 174.923 251.028 176.198V183H249.26V176.469C249.26 175.484 249.024 174.77 248.552 174.326C248.081 173.883 247.436 173.661 246.618 173.661C246.049 173.661 245.536 173.82 245.079 174.139C244.635 174.458 244.288 174.881 244.039 175.408C243.789 175.921 243.664 176.462 243.664 177.03V183H241.896V172.392ZM257.157 183.333C256.019 183.333 255.07 183.069 254.307 182.542C253.544 182.002 253.003 181.315 252.685 180.483L254.265 179.776C254.529 180.414 254.917 180.906 255.43 181.253C255.957 181.599 256.533 181.773 257.157 181.773C257.822 181.773 258.391 181.641 258.862 181.378C259.334 181.1 259.569 180.712 259.569 180.213C259.569 179.769 259.382 179.415 259.008 179.152C258.633 178.875 258.044 178.639 257.24 178.445L255.95 178.112C255.104 177.904 254.411 177.55 253.87 177.051C253.329 176.552 253.059 175.907 253.059 175.117C253.059 174.507 253.239 173.973 253.6 173.515C253.974 173.044 254.466 172.683 255.077 172.434C255.687 172.184 256.345 172.059 257.053 172.059C257.982 172.059 258.807 172.26 259.528 172.662C260.263 173.065 260.783 173.626 261.088 174.347L259.549 175.054C259.077 174.111 258.238 173.64 257.032 173.64C256.449 173.64 255.936 173.779 255.493 174.056C255.063 174.319 254.848 174.659 254.848 175.075C254.848 175.463 255 175.782 255.305 176.032C255.61 176.268 256.068 176.462 256.678 176.614L258.217 177.01C259.257 177.273 260.041 177.668 260.568 178.195C261.095 178.708 261.358 179.339 261.358 180.088C261.358 180.74 261.171 181.315 260.797 181.814C260.422 182.3 259.916 182.674 259.278 182.938C258.64 183.201 257.933 183.333 257.157 183.333ZM262.121 172.392H263.93L266.468 180.774H266.489L269.151 172.392H270.981L273.665 180.754H273.685L276.202 172.392H277.991L274.559 183H272.77L270.025 174.534L267.3 183H265.532L262.121 172.392ZM283.973 183.333C282.96 183.333 282.052 183.09 281.248 182.605C280.444 182.119 279.813 181.454 279.355 180.608C278.911 179.748 278.689 178.785 278.689 177.717C278.689 176.691 278.897 175.748 279.313 174.888C279.743 174.028 280.346 173.342 281.123 172.829C281.9 172.316 282.801 172.059 283.827 172.059C284.867 172.059 285.768 172.295 286.531 172.766C287.294 173.224 287.876 173.862 288.278 174.68C288.694 175.498 288.902 176.434 288.902 177.488C288.902 177.696 288.881 177.876 288.84 178.029H280.457C280.499 178.833 280.693 179.513 281.04 180.067C281.386 180.622 281.823 181.038 282.35 181.315C282.891 181.593 283.453 181.731 284.035 181.731C285.394 181.731 286.441 181.093 287.176 179.818L288.673 180.546C288.216 181.405 287.592 182.085 286.801 182.584C286.025 183.083 285.082 183.333 283.973 183.333ZM287.03 176.573C287.002 176.129 286.878 175.685 286.656 175.242C286.434 174.798 286.08 174.423 285.595 174.118C285.124 173.813 284.527 173.661 283.806 173.661C282.974 173.661 282.267 173.931 281.685 174.472C281.116 174.999 280.742 175.699 280.561 176.573H287.03ZM290.971 172.392H292.656V174.098H292.739C292.947 173.515 293.349 173.037 293.946 172.662C294.542 172.274 295.166 172.08 295.818 172.08C296.303 172.08 296.719 172.149 297.066 172.288V174.202C296.622 173.98 296.123 173.869 295.568 173.869C295.055 173.869 294.584 174.014 294.154 174.306C293.724 174.597 293.377 174.992 293.114 175.491C292.864 175.977 292.739 176.503 292.739 177.072V183H290.971V172.392ZM302.068 183.333C300.93 183.333 299.981 183.069 299.218 182.542C298.455 182.002 297.914 181.315 297.596 180.483L299.176 179.776C299.44 180.414 299.828 180.906 300.341 181.253C300.868 181.599 301.444 181.773 302.068 181.773C302.733 181.773 303.302 181.641 303.773 181.378C304.245 181.1 304.48 180.712 304.48 180.213C304.48 179.769 304.293 179.415 303.919 179.152C303.544 178.875 302.955 178.639 302.151 178.445L300.861 178.112C300.015 177.904 299.322 177.55 298.781 177.051C298.24 176.552 297.97 175.907 297.97 175.117C297.97 174.507 298.15 173.973 298.511 173.515C298.885 173.044 299.377 172.683 299.988 172.434C300.598 172.184 301.256 172.059 301.964 172.059C302.893 172.059 303.718 172.26 304.439 172.662C305.174 173.065 305.694 173.626 305.999 174.347L304.46 175.054C303.988 174.111 303.149 173.64 301.943 173.64C301.36 173.64 300.847 173.779 300.404 174.056C299.974 174.319 299.759 174.659 299.759 175.075C299.759 175.463 299.911 175.782 300.216 176.032C300.521 176.268 300.979 176.462 301.589 176.614L303.128 177.01C304.168 177.273 304.952 177.668 305.479 178.195C306.006 178.708 306.269 179.339 306.269 180.088C306.269 180.74 306.082 181.315 305.708 181.814C305.333 182.3 304.827 182.674 304.189 182.938C303.551 183.201 302.844 183.333 302.068 183.333Z" fill="#11181C"/>
<path fill-rule="evenodd" clip-rule="evenodd" d="M90.0047 72C85.5868 72 82 75.4932 82 79.7958C82 84.0985 85.5868 87.5917 90.0047 87.5917C94.4226 87.5917 98.0093 84.0985 98.0093 79.7958C98.0093 75.4932 94.4226 72 90.0047 72ZM90.0047 75.5981C92.3836 75.5981 94.3149 77.479 94.3149 79.7958C94.3149 82.1127 92.3836 83.9936 90.0047 83.9936C87.6258 83.9936 85.6945 82.1127 85.6945 79.7958C85.6945 77.479 87.6258 75.5981 90.0047 75.5981ZM109.901 107.889L119.211 112.784C119.87 113.131 120.679 113.055 121.258 112.593C121.838 112.131 122.074 111.374 121.856 110.676L120.031 104.848C124.251 101.896 127 97.0755 127 91.635C127 82.6615 119.52 75.3763 110.306 75.3763C108.089 75.3763 105.973 75.7983 104.038 76.5632C103.29 76.8588 102.826 77.5931 102.892 78.3767C102.921 78.7203 102.935 79.0683 102.935 79.4196C102.935 84.7271 99.5745 89.276 94.8139 91.1573C94.066 91.4529 93.6017 92.1872 93.6673 92.9707C94.3561 101.191 101.333 107.689 109.901 107.889ZM111.254 104.511L110.306 104.296C103.927 104.296 98.6153 99.8125 97.5151 93.9074C102.904 91.226 106.602 85.7764 106.629 79.4888C107.795 79.1538 109.029 78.9744 110.306 78.9744C117.481 78.9744 123.306 84.6474 123.306 91.635C123.306 96.2712 120.741 100.328 116.919 102.535C116.186 102.958 115.845 103.814 116.094 104.607L117.011 107.538C117.011 107.538 111.254 104.511 111.254 104.511Z" fill="#535353"/>
<path fill-rule="evenodd" clip-rule="evenodd" d="M80.0566 92.7662L78.2093 98.6531C77.9882 99.3579 78.2269 100.123 78.8139 100.589C79.4008 101.056 80.2197 101.132 80.8871 100.782L90.3152 95.8375C99.4556 95.6258 106.809 88.3512 106.809 79.4213C106.809 70.3581 99.2346 63 89.9047 63C80.5747 63 73 70.3581 73 79.4213C73 84.9163 75.7839 89.7849 80.0566 92.7662ZM107.985 95.5756H113.078L114.438 98.3727C114.879 99.2795 115.994 99.6681 116.928 99.2399C117.862 98.8117 118.261 97.7277 117.821 96.821L115.967 93.0085C115.96 92.9922 115.952 92.9761 115.944 92.9601L112.223 85.3062C111.914 84.6705 111.255 84.265 110.532 84.265C109.808 84.265 109.149 84.6705 108.84 85.3062L103.243 96.821C102.802 97.7277 103.202 98.8117 104.135 99.2399C105.069 99.6681 106.185 99.2795 106.625 98.3727L107.985 95.5756ZM89.9047 92.2084C90.9377 92.2084 90.439 92.2132 89.8413 92.2082C89.2421 92.2152 89.116 92.3306 88.9448 92.4263L83.1148 95.4838C83.1148 95.4838 84.0438 92.5232 84.0438 92.5232C84.2953 91.7219 83.9502 90.8576 83.2085 90.4304C79.3384 88.2016 76.741 84.1039 76.741 79.4213C76.741 72.3638 82.6394 66.6341 89.9047 66.6341C97.1698 66.6341 103.068 72.3638 103.068 79.4213C103.068 86.4787 97.1698 92.2084 89.9047 92.2084ZM109.752 91.9416H111.311L110.532 90.3373L109.752 91.9416ZM90.942 83.2848L94.9137 87.1429C95.6437 87.852 96.829 87.852 97.559 87.1429C98.289 86.4338 98.289 85.2823 97.559 84.5733L93.5873 80.7152C92.8573 80.006 91.672 80.006 90.942 80.7152C90.212 81.4243 90.212 82.5757 90.942 83.2848Z" fill="#535353"/>
</g>
<defs>
<filter id="filter0_ddd_75_23460" x="-3.8147e-06" y="0.599996" width="376" height="257.6" filterUnits="userSpaceOnUse" color-interpolation-filters="sRGB">
<feFlood flood-opacity="0" result="BackgroundImageFix"/>
<feColorMatrix in="SourceAlpha" type="matrix" values="0 0 0 0 0 0 0 0 0 0 0 0 0 0 0 0 0 0 127 0" result="hardAlpha"/>
<feOffset/>
<feGaussianBlur stdDeviation="0.65"/>
<feComposite in2="hardAlpha" operator="out"/>
<feColorMatrix type="matrix" values="0 0 0 0 0 0 0 0 0 0 0 0 0 0 0 0 0 0 0.3 0"/>
<feBlend mode="normal" in2="BackgroundImageFix" result="effect1_dropShadow_75_23460"/>
<feColorMatrix in="SourceAlpha" type="matrix" values="0 0 0 0 0 0 0 0 0 0 0 0 0 0 0 0 0 0 127 0" result="hardAlpha"/>
<feOffset dy="2.6"/>
<feGaussianBlur stdDeviation="19.5"/>
<feComposite in2="hardAlpha" operator="out"/>
<feColorMatrix type="matrix" values="0 0 0 0 0 0 0 0 0 0 0 0 0 0 0 0 0 0 0.08 0"/>
<feBlend mode="normal" in2="effect1_dropShadow_75_23460" result="effect2_dropShadow_75_23460"/>
<feColorMatrix in="SourceAlpha" type="matrix" values="0 0 0 0 0 0 0 0 0 0 0 0 0 0 0 0 0 0 127 0" result="hardAlpha"/>
<feOffset/>
<feGaussianBlur stdDeviation="9.75"/>
<feComposite in2="hardAlpha" operator="out"/>
<feColorMatrix type="matrix" values="0 0 0 0 0 0 0 0 0 0 0 0 0 0 0 0 0 0 0.03 0"/>
<feBlend mode="normal" in2="effect2_dropShadow_75_23460" result="effect3_dropShadow_75_23460"/>
<feBlend mode="normal" in="SourceGraphic" in2="effect3_dropShadow_75_23460" result="shape"/>
</filter>
</defs>
</svg>
