<svg width="357" height="248" viewBox="0 0 357 248" fill="none" xmlns="http://www.w3.org/2000/svg">
<g filter="url(#filter0_ddd_75_23449)">
<rect x="38" y="35" width="281.28" height="172.416" rx="17.472" fill="white"/>
<path d="M68.4527 134.48H64.4392V132.863H74.1436V134.48H70.15V147.16H68.4527V134.48ZM78.8757 147.48C77.9039 147.48 77.032 147.247 76.2599 146.781C75.4878 146.315 74.8821 145.676 74.4428 144.864C74.0168 144.038 73.8038 143.113 73.8038 142.088C73.8038 141.103 74.0035 140.198 74.4029 139.373C74.8155 138.547 75.3946 137.888 76.1401 137.396C76.8856 136.903 77.7508 136.657 78.7359 136.657C79.7343 136.657 80.5996 136.883 81.3318 137.336C82.0639 137.775 82.623 138.388 83.0091 139.173C83.4084 139.958 83.6081 140.857 83.6081 141.869C83.6081 142.068 83.5882 142.241 83.5482 142.388H75.5011C75.541 143.16 75.7274 143.812 76.0602 144.345C76.393 144.877 76.8123 145.277 77.3182 145.543C77.8374 145.809 78.3765 145.942 78.9356 145.942C80.2402 145.942 81.2452 145.33 81.9508 144.105L83.3885 144.804C82.9492 145.629 82.3501 146.282 81.5914 146.761C80.8459 147.24 79.9407 147.48 78.8757 147.48ZM81.811 140.99C81.7844 140.564 81.6646 140.138 81.4516 139.712C81.2386 139.286 80.8991 138.927 80.4332 138.634C79.9806 138.341 79.4082 138.195 78.716 138.195C77.9172 138.195 77.2383 138.454 76.6792 138.973C76.1334 139.479 75.774 140.151 75.601 140.99H81.811ZM89.2463 147.48C88.1547 147.48 87.2428 147.227 86.5107 146.721C85.7785 146.202 85.2593 145.543 84.9532 144.744L86.4707 144.065C86.7236 144.677 87.0964 145.15 87.5889 145.483C88.0948 145.816 88.6472 145.982 89.2463 145.982C89.8852 145.982 90.431 145.856 90.8836 145.603C91.3363 145.336 91.5626 144.964 91.5626 144.484C91.5626 144.058 91.3828 143.719 91.0234 143.466C90.664 143.2 90.0982 142.974 89.3261 142.787L88.0881 142.468C87.2761 142.268 86.6105 141.929 86.0913 141.449C85.5722 140.97 85.3126 140.351 85.3126 139.592C85.3126 139.007 85.4856 138.494 85.8317 138.055C86.1912 137.602 86.6637 137.256 87.2495 137.016C87.8352 136.777 88.4675 136.657 89.1464 136.657C90.0383 136.657 90.8304 136.85 91.5226 137.236C92.2282 137.622 92.7274 138.161 93.0202 138.853L91.5426 139.532C91.09 138.627 90.2846 138.175 89.1265 138.175C88.5674 138.175 88.0748 138.308 87.6488 138.574C87.2362 138.827 87.0298 139.153 87.0298 139.552C87.0298 139.925 87.1763 140.231 87.4691 140.471C87.762 140.697 88.2013 140.884 88.787 141.03L90.2646 141.409C91.263 141.662 92.0152 142.042 92.521 142.548C93.0269 143.04 93.2798 143.646 93.2798 144.365C93.2798 144.99 93.1001 145.543 92.7407 146.022C92.3813 146.488 91.8954 146.847 91.283 147.1C90.6707 147.353 89.9917 147.48 89.2463 147.48ZM98.9462 147.32C98.5335 147.32 98.1475 147.253 97.7881 147.12C97.4419 146.987 97.1491 146.807 96.9095 146.581C96.6432 146.328 96.4435 146.035 96.3104 145.702C96.1773 145.37 96.1107 144.964 96.1107 144.484V138.514H94.3336V136.976H96.1107V134.101H97.808V136.976H100.284V138.514H97.808V144.065C97.808 144.624 97.9145 145.037 98.1275 145.303C98.3804 145.596 98.7465 145.742 99.2258 145.742C99.6118 145.742 99.9845 145.629 100.344 145.403V147.06C100.144 147.154 99.9379 147.22 99.725 147.26C99.5253 147.3 99.2657 147.32 98.9462 147.32ZM110.101 146.521L105.888 136.976H107.725L110.92 144.544H110.96L114.035 136.976H115.872L109.582 151.473H107.825L110.101 146.521ZM121.584 147.48C120.586 147.48 119.687 147.24 118.889 146.761C118.09 146.282 117.464 145.629 117.012 144.804C116.572 143.979 116.353 143.067 116.353 142.068C116.353 141.07 116.572 140.158 117.012 139.333C117.464 138.507 118.09 137.855 118.889 137.376C119.687 136.897 120.586 136.657 121.584 136.657C122.583 136.657 123.481 136.897 124.28 137.376C125.079 137.855 125.698 138.507 126.137 139.333C126.59 140.158 126.816 141.07 126.816 142.068C126.816 143.067 126.59 143.979 126.137 144.804C125.698 145.629 125.079 146.282 124.28 146.761C123.481 147.24 122.583 147.48 121.584 147.48ZM121.584 145.942C122.21 145.942 122.789 145.789 123.322 145.483C123.867 145.163 124.3 144.711 124.62 144.125C124.952 143.539 125.119 142.854 125.119 142.068C125.119 141.283 124.952 140.597 124.62 140.012C124.3 139.426 123.867 138.98 123.322 138.674C122.789 138.354 122.21 138.195 121.584 138.195C120.959 138.195 120.373 138.354 119.827 138.674C119.281 138.98 118.842 139.426 118.509 140.012C118.19 140.597 118.03 141.283 118.03 142.068C118.03 142.854 118.19 143.539 118.509 144.125C118.842 144.711 119.281 145.163 119.827 145.483C120.373 145.789 120.959 145.942 121.584 145.942ZM132.384 147.48C131.159 147.48 130.22 147.12 129.568 146.401C128.929 145.683 128.61 144.677 128.61 143.386V136.976H130.307V143.127C130.307 144.098 130.527 144.811 130.966 145.263C131.405 145.716 131.998 145.942 132.743 145.942C133.315 145.942 133.821 145.789 134.261 145.483C134.713 145.177 135.059 144.777 135.299 144.285C135.552 143.792 135.678 143.273 135.678 142.727V136.976H137.376V147.16H135.758V145.683H135.678C135.399 146.188 134.953 146.614 134.34 146.96C133.728 147.307 133.076 147.48 132.384 147.48ZM139.882 136.976H141.5V138.614H141.58C141.779 138.055 142.165 137.595 142.738 137.236C143.31 136.863 143.909 136.677 144.535 136.677C145.001 136.677 145.4 136.744 145.733 136.877V138.714C145.307 138.501 144.828 138.394 144.295 138.394C143.803 138.394 143.35 138.534 142.938 138.814C142.525 139.093 142.192 139.472 141.939 139.952C141.7 140.418 141.58 140.923 141.58 141.469V147.16H139.882V136.976ZM150.535 147.48C149.443 147.48 148.531 147.227 147.799 146.721C147.067 146.202 146.548 145.543 146.242 144.744L147.759 144.065C148.012 144.677 148.385 145.15 148.877 145.483C149.383 145.816 149.936 145.982 150.535 145.982C151.174 145.982 151.72 145.856 152.172 145.603C152.625 145.336 152.851 144.964 152.851 144.484C152.851 144.058 152.671 143.719 152.312 143.466C151.953 143.2 151.387 142.974 150.615 142.787L149.377 142.468C148.565 142.268 147.899 141.929 147.38 141.449C146.861 140.97 146.601 140.351 146.601 139.592C146.601 139.007 146.774 138.494 147.12 138.055C147.48 137.602 147.952 137.256 148.538 137.016C149.124 136.777 149.756 136.657 150.435 136.657C151.327 136.657 152.119 136.85 152.811 137.236C153.517 137.622 154.016 138.161 154.309 138.853L152.831 139.532C152.378 138.627 151.573 138.175 150.415 138.175C149.856 138.175 149.363 138.308 148.937 138.574C148.525 138.827 148.318 139.153 148.318 139.552C148.318 139.925 148.465 140.231 148.758 140.471C149.05 140.697 149.49 140.884 150.076 141.03L151.553 141.409C152.552 141.662 153.304 142.042 153.81 142.548C154.315 143.04 154.568 143.646 154.568 144.365C154.568 144.99 154.389 145.543 154.029 146.022C153.67 146.488 153.184 146.847 152.572 147.1C151.959 147.353 151.28 147.48 150.535 147.48ZM161.049 147.48C160.077 147.48 159.205 147.247 158.433 146.781C157.661 146.315 157.055 145.676 156.616 144.864C156.19 144.038 155.977 143.113 155.977 142.088C155.977 141.103 156.177 140.198 156.576 139.373C156.989 138.547 157.568 137.888 158.313 137.396C159.059 136.903 159.924 136.657 160.909 136.657C161.907 136.657 162.773 136.883 163.505 137.336C164.237 137.775 164.796 138.388 165.182 139.173C165.581 139.958 165.781 140.857 165.781 141.869C165.781 142.068 165.761 142.241 165.721 142.388H157.674C157.714 143.16 157.9 143.812 158.233 144.345C158.566 144.877 158.985 145.277 159.491 145.543C160.01 145.809 160.55 145.942 161.109 145.942C162.413 145.942 163.418 145.33 164.124 144.105L165.561 144.804C165.122 145.629 164.523 146.282 163.764 146.761C163.019 147.24 162.114 147.48 161.049 147.48ZM163.984 140.99C163.957 140.564 163.838 140.138 163.625 139.712C163.412 139.286 163.072 138.927 162.606 138.634C162.154 138.341 161.581 138.195 160.889 138.195C160.09 138.195 159.411 138.454 158.852 138.973C158.306 139.479 157.947 140.151 157.774 140.99H163.984ZM167.767 132.863H169.465V147.16H167.767V132.863ZM173.158 138.514H171.281V136.976H173.158V135.878C173.158 135.239 173.304 134.68 173.597 134.201C173.89 133.722 174.282 133.356 174.775 133.103C175.268 132.836 175.813 132.703 176.412 132.703C176.985 132.703 177.484 132.783 177.91 132.943V134.6C177.67 134.507 177.444 134.434 177.231 134.381C177.018 134.314 176.765 134.281 176.472 134.281C176.033 134.281 175.654 134.441 175.334 134.76C175.015 135.066 174.855 135.499 174.855 136.058V136.976H177.471V138.514H174.855V147.16H173.158V138.514ZM183.068 136.976H184.805L187.242 145.024H187.262L189.817 136.976H191.575L194.151 145.004H194.17L196.587 136.976H198.304L195.009 147.16H193.292L190.656 139.033L188.04 147.16H186.343L183.068 136.976ZM200.707 135.099C200.374 135.099 200.088 134.98 199.848 134.74C199.609 134.5 199.489 134.214 199.489 133.881C199.489 133.549 199.609 133.269 199.848 133.043C200.088 132.803 200.374 132.683 200.707 132.683C201.04 132.683 201.326 132.803 201.566 133.043C201.805 133.269 201.925 133.549 201.925 133.881C201.925 134.214 201.805 134.5 201.566 134.74C201.339 134.98 201.053 135.099 200.707 135.099ZM199.868 136.976H201.546V147.16H199.868V136.976ZM208.029 147.32C207.617 147.32 207.23 147.253 206.871 147.12C206.525 146.987 206.232 146.807 205.992 146.581C205.726 146.328 205.527 146.035 205.393 145.702C205.26 145.37 205.194 144.964 205.194 144.484V138.514H203.417V136.976H205.194V134.101H206.891V136.976H209.367V138.514H206.891V144.065C206.891 144.624 206.998 145.037 207.211 145.303C207.463 145.596 207.83 145.742 208.309 145.742C208.695 145.742 209.068 145.629 209.427 145.403V147.06C209.227 147.154 209.021 147.22 208.808 147.26C208.608 147.3 208.349 147.32 208.029 147.32ZM211.525 132.863H213.223V137.076L213.143 138.474H213.223C213.502 137.955 213.942 137.522 214.541 137.176C215.153 136.83 215.819 136.657 216.537 136.657C217.775 136.657 218.721 137.023 219.373 137.755C220.025 138.474 220.351 139.433 220.351 140.631V147.16H218.654V140.89C218.654 139.972 218.421 139.293 217.955 138.853C217.489 138.414 216.884 138.195 216.138 138.195C215.606 138.195 215.113 138.354 214.66 138.674C214.221 138.993 213.868 139.406 213.602 139.912C213.349 140.418 213.223 140.943 213.223 141.489V147.16H211.525V132.863ZM235.245 147.06L235.325 145.663H235.245C234.925 146.168 234.46 146.601 233.847 146.96C233.235 147.307 232.536 147.48 231.751 147.48C230.845 147.48 230.02 147.247 229.275 146.781C228.542 146.315 227.963 145.676 227.537 144.864C227.111 144.038 226.898 143.107 226.898 142.068C226.898 141.043 227.111 140.118 227.537 139.293C227.963 138.467 228.542 137.822 229.275 137.356C230.02 136.89 230.845 136.657 231.751 136.657C232.536 136.657 233.235 136.837 233.847 137.196C234.46 137.542 234.925 137.975 235.245 138.494H235.325V136.976H236.942V151.473H235.245V147.06ZM231.95 145.942C232.549 145.942 233.102 145.782 233.608 145.463C234.127 145.143 234.539 144.691 234.846 144.105C235.165 143.519 235.325 142.84 235.325 142.068C235.325 141.296 235.165 140.617 234.846 140.032C234.539 139.446 234.127 138.993 233.608 138.674C233.102 138.354 232.549 138.195 231.95 138.195C231.365 138.195 230.812 138.354 230.293 138.674C229.774 138.993 229.354 139.453 229.035 140.052C228.729 140.637 228.576 141.31 228.576 142.068C228.576 142.827 228.729 143.506 229.035 144.105C229.354 144.691 229.774 145.143 230.293 145.463C230.812 145.782 231.365 145.942 231.95 145.942ZM243.066 147.48C241.841 147.48 240.902 147.12 240.25 146.401C239.611 145.683 239.292 144.677 239.292 143.386V136.976H240.989V143.127C240.989 144.098 241.209 144.811 241.648 145.263C242.087 145.716 242.68 145.942 243.425 145.942C243.997 145.942 244.503 145.789 244.943 145.483C245.395 145.177 245.741 144.777 245.981 144.285C246.234 143.792 246.36 143.273 246.36 142.727V136.976H248.058V147.16H246.44V145.683H246.36C246.081 146.188 245.635 146.614 245.022 146.96C244.41 147.307 243.758 147.48 243.066 147.48ZM251.563 135.099C251.23 135.099 250.944 134.98 250.704 134.74C250.465 134.5 250.345 134.214 250.345 133.881C250.345 133.549 250.465 133.269 250.704 133.043C250.944 132.803 251.23 132.683 251.563 132.683C251.896 132.683 252.182 132.803 252.422 133.043C252.661 133.269 252.781 133.549 252.781 133.881C252.781 134.214 252.661 134.5 252.422 134.74C252.195 134.98 251.909 135.099 251.563 135.099ZM250.724 136.976H252.402V147.16H250.724V136.976ZM259.584 147.48C258.599 147.48 257.714 147.247 256.928 146.781C256.143 146.302 255.531 145.656 255.091 144.844C254.652 144.019 254.432 143.093 254.432 142.068C254.432 141.043 254.652 140.118 255.091 139.293C255.531 138.467 256.143 137.822 256.928 137.356C257.714 136.89 258.599 136.657 259.584 136.657C260.689 136.657 261.614 136.917 262.36 137.436C263.118 137.942 263.658 138.621 263.977 139.472L262.44 140.111C262.187 139.486 261.807 139.013 261.301 138.694C260.809 138.361 260.21 138.195 259.504 138.195C258.905 138.195 258.346 138.361 257.827 138.694C257.308 139.013 256.888 139.466 256.569 140.052C256.263 140.637 256.11 141.31 256.11 142.068C256.11 142.827 256.263 143.499 256.569 144.085C256.888 144.671 257.308 145.13 257.827 145.463C258.346 145.782 258.905 145.942 259.504 145.942C260.223 145.942 260.842 145.776 261.361 145.443C261.88 145.11 262.266 144.638 262.519 144.025L264.037 144.664C263.691 145.503 263.132 146.182 262.36 146.701C261.601 147.22 260.676 147.48 259.584 147.48ZM265.872 132.863H267.569V141.849L272.362 136.976H274.518V137.056L270.525 141.09L274.618 147.08V147.16H272.601L269.326 142.268L267.569 144.025V147.16H265.872V132.863ZM66.3561 166.514H64.4791V164.976H66.3561V164.018C66.3561 163.033 66.6689 162.248 67.2946 161.662C67.9202 161.076 68.7323 160.783 69.7307 160.783H74.3632V175.16H72.6859V162.321H69.7307C69.2381 162.321 68.8321 162.474 68.5126 162.78C68.2064 163.073 68.0534 163.499 68.0534 164.058V164.976H70.6692V166.514H68.0534V175.16H66.3561V166.514ZM80.0353 175.48C79.2898 175.48 78.6242 175.333 78.0385 175.04C77.4527 174.747 77.0001 174.348 76.6806 173.842C76.3611 173.323 76.2014 172.737 76.2014 172.085C76.2014 171.007 76.6074 170.168 77.4194 169.569C78.2315 168.957 79.2565 168.651 80.4945 168.651C81.1069 168.651 81.6726 168.717 82.1918 168.85C82.7243 168.983 83.1303 169.136 83.4098 169.31V168.691C83.4098 167.932 83.1436 167.326 82.6111 166.873C82.0786 166.408 81.4064 166.175 80.5944 166.175C80.0219 166.175 79.4961 166.301 79.0169 166.554C78.5377 166.794 78.1583 167.133 77.8787 167.572L76.6008 166.614C77.0001 166.001 77.5459 165.522 78.2381 165.176C78.9437 164.83 79.7224 164.657 80.5744 164.657C81.9588 164.657 83.0438 165.023 83.8292 165.755C84.6279 166.474 85.0273 167.459 85.0273 168.71V175.16H83.4098V173.702H83.33C83.0371 174.195 82.5978 174.614 82.0121 174.96C81.4264 175.307 80.7674 175.48 80.0353 175.48ZM80.195 173.982C80.7674 173.982 81.2999 173.836 81.7924 173.543C82.285 173.25 82.6777 172.857 82.9705 172.365C83.2634 171.872 83.4098 171.333 83.4098 170.747C83.0904 170.534 82.6977 170.361 82.2317 170.228C81.7658 170.095 81.2733 170.028 80.7541 170.028C79.8223 170.028 79.1167 170.221 78.6375 170.607C78.1716 170.993 77.9386 171.493 77.9386 172.105C77.9386 172.664 78.1516 173.117 78.5776 173.463C79.0036 173.809 79.5427 173.982 80.195 173.982ZM90.8453 175.48C89.7537 175.48 88.8418 175.227 88.1097 174.721C87.3775 174.202 86.8583 173.543 86.5522 172.744L88.0697 172.065C88.3227 172.677 88.6954 173.15 89.1879 173.483C89.6938 173.816 90.2462 173.982 90.8453 173.982C91.4843 173.982 92.03 173.856 92.4827 173.603C92.9353 173.336 93.1616 172.964 93.1616 172.484C93.1616 172.058 92.9819 171.719 92.6224 171.466C92.263 171.2 91.6972 170.974 90.9251 170.787L89.6871 170.468C88.8751 170.268 88.2095 169.929 87.6903 169.449C87.1712 168.97 86.9116 168.351 86.9116 167.592C86.9116 167.007 87.0846 166.494 87.4307 166.055C87.7902 165.602 88.2627 165.256 88.8485 165.016C89.4342 164.777 90.0665 164.657 90.7454 164.657C91.6373 164.657 92.4294 164.85 93.1216 165.236C93.8272 165.622 94.3264 166.161 94.6192 166.853L93.1416 167.532C92.689 166.627 91.8836 166.175 90.7255 166.175C90.1664 166.175 89.6738 166.308 89.2478 166.574C88.8352 166.827 88.6288 167.153 88.6288 167.552C88.6288 167.925 88.7753 168.231 89.0681 168.471C89.361 168.697 89.8003 168.884 90.386 169.03L91.8636 169.409C92.862 169.662 93.6142 170.042 94.12 170.548C94.6259 171.04 94.8788 171.646 94.8788 172.365C94.8788 172.99 94.6991 173.543 94.3397 174.022C93.9803 174.488 93.4944 174.847 92.882 175.1C92.2697 175.353 91.5907 175.48 90.8453 175.48ZM96.729 160.863H98.4262V165.076L98.3464 166.474H98.4262C98.7058 165.955 99.1451 165.522 99.7441 165.176C100.356 164.83 101.022 164.657 101.741 164.657C102.979 164.657 103.924 165.023 104.576 165.755C105.229 166.474 105.555 167.433 105.555 168.631V175.16H103.858V168.89C103.858 167.972 103.625 167.293 103.159 166.853C102.693 166.414 102.087 166.195 101.342 166.195C100.809 166.195 100.317 166.354 99.8639 166.674C99.4247 166.993 99.0719 167.406 98.8056 167.912C98.5527 168.418 98.4262 168.943 98.4262 169.489V175.16H96.729V160.863ZM117.254 175.48C116.268 175.48 115.383 175.247 114.598 174.781C113.812 174.302 113.2 173.656 112.761 172.844C112.321 172.019 112.102 171.093 112.102 170.068C112.102 169.043 112.321 168.118 112.761 167.293C113.2 166.467 113.812 165.822 114.598 165.356C115.383 164.89 116.268 164.657 117.254 164.657C118.358 164.657 119.284 164.917 120.029 165.436C120.788 165.942 121.327 166.621 121.647 167.472L120.109 168.111C119.856 167.486 119.477 167.013 118.971 166.694C118.478 166.361 117.879 166.195 117.174 166.195C116.575 166.195 116.016 166.361 115.496 166.694C114.977 167.013 114.558 167.466 114.238 168.052C113.932 168.637 113.779 169.31 113.779 170.068C113.779 170.827 113.932 171.499 114.238 172.085C114.558 172.671 114.977 173.13 115.496 173.463C116.016 173.782 116.575 173.942 117.174 173.942C117.893 173.942 118.512 173.776 119.031 173.443C119.55 173.11 119.936 172.638 120.189 172.025L121.706 172.664C121.36 173.503 120.801 174.182 120.029 174.701C119.27 175.22 118.345 175.48 117.254 175.48ZM126.699 175.48C125.953 175.48 125.288 175.333 124.702 175.04C124.116 174.747 123.664 174.348 123.344 173.842C123.025 173.323 122.865 172.737 122.865 172.085C122.865 171.007 123.271 170.168 124.083 169.569C124.895 168.957 125.92 168.651 127.158 168.651C127.77 168.651 128.336 168.717 128.855 168.85C129.388 168.983 129.794 169.136 130.073 169.31V168.691C130.073 167.932 129.807 167.326 129.275 166.873C128.742 166.408 128.07 166.175 127.258 166.175C126.685 166.175 126.16 166.301 125.68 166.554C125.201 166.794 124.822 167.133 124.542 167.572L123.264 166.614C123.664 166.001 124.209 165.522 124.902 165.176C125.607 164.83 126.386 164.657 127.238 164.657C128.622 164.657 129.707 165.023 130.493 165.755C131.291 166.474 131.691 167.459 131.691 168.71V175.16H130.073V173.702H129.993C129.701 174.195 129.261 174.614 128.676 174.96C128.09 175.307 127.431 175.48 126.699 175.48ZM126.859 173.982C127.431 173.982 127.963 173.836 128.456 173.543C128.948 173.25 129.341 172.857 129.634 172.365C129.927 171.872 130.073 171.333 130.073 170.747C129.754 170.534 129.361 170.361 128.895 170.228C128.429 170.095 127.937 170.028 127.418 170.028C126.486 170.028 125.78 170.221 125.301 170.607C124.835 170.993 124.602 171.493 124.602 172.105C124.602 172.664 124.815 173.117 125.241 173.463C125.667 173.809 126.206 173.982 126.859 173.982ZM134.052 164.976H135.669V166.614H135.749C135.949 166.055 136.335 165.595 136.907 165.236C137.48 164.863 138.079 164.677 138.705 164.677C139.17 164.677 139.57 164.744 139.903 164.877V166.714C139.477 166.501 138.997 166.394 138.465 166.394C137.972 166.394 137.52 166.534 137.107 166.814C136.694 167.093 136.362 167.472 136.109 167.952C135.869 168.418 135.749 168.923 135.749 169.469V175.16H134.052V164.976ZM145.249 175.48C144.343 175.48 143.518 175.247 142.773 174.781C142.04 174.315 141.461 173.676 141.035 172.864C140.609 172.038 140.396 171.107 140.396 170.068C140.396 169.043 140.609 168.118 141.035 167.293C141.461 166.467 142.04 165.822 142.773 165.356C143.518 164.89 144.343 164.657 145.249 164.657C146.034 164.657 146.733 164.837 147.345 165.196C147.958 165.542 148.423 165.975 148.743 166.494H148.823L148.743 165.076V160.863H150.44V175.16H148.823V173.663H148.743C148.423 174.168 147.958 174.601 147.345 174.96C146.733 175.307 146.034 175.48 145.249 175.48ZM145.448 173.942C146.047 173.942 146.6 173.782 147.106 173.463C147.625 173.143 148.037 172.691 148.344 172.105C148.663 171.519 148.823 170.84 148.823 170.068C148.823 169.296 148.663 168.617 148.344 168.032C148.037 167.446 147.625 166.993 147.106 166.674C146.6 166.354 146.047 166.195 145.448 166.195C144.863 166.195 144.31 166.354 143.791 166.674C143.272 166.993 142.852 167.453 142.533 168.052C142.227 168.637 142.074 169.31 142.074 170.068C142.074 170.827 142.227 171.506 142.533 172.105C142.852 172.691 143.272 173.143 143.791 173.463C144.31 173.782 144.863 173.942 145.448 173.942ZM156.404 175.48C155.313 175.48 154.401 175.227 153.669 174.721C152.937 174.202 152.417 173.543 152.111 172.744L153.629 172.065C153.882 172.677 154.254 173.15 154.747 173.483C155.253 173.816 155.805 173.982 156.404 173.982C157.043 173.982 157.589 173.856 158.042 173.603C158.494 173.336 158.721 172.964 158.721 172.484C158.721 172.058 158.541 171.719 158.181 171.466C157.822 171.2 157.256 170.974 156.484 170.787L155.246 170.468C154.434 170.268 153.769 169.929 153.249 169.449C152.73 168.97 152.471 168.351 152.471 167.592C152.471 167.007 152.644 166.494 152.99 166.055C153.349 165.602 153.822 165.256 154.407 165.016C154.993 164.777 155.626 164.657 156.304 164.657C157.196 164.657 157.988 164.85 158.681 165.236C159.386 165.622 159.885 166.161 160.178 166.853L158.701 167.532C158.248 166.627 157.443 166.175 156.284 166.175C155.725 166.175 155.233 166.308 154.807 166.574C154.394 166.827 154.188 167.153 154.188 167.552C154.188 167.925 154.334 168.231 154.627 168.471C154.92 168.697 155.359 168.884 155.945 169.03L157.423 169.409C158.421 169.662 159.173 170.042 159.679 170.548C160.185 171.04 160.438 171.646 160.438 172.365C160.438 172.99 160.258 173.543 159.899 174.022C159.539 174.488 159.053 174.847 158.441 175.1C157.829 175.353 157.15 175.48 156.404 175.48Z" fill="#11181C"/>
<path d="M89.6885 107H89.6879C89.6635 107 89.6392 106.996 89.6162 106.988C89.5715 106.971 89.5335 106.94 89.5083 106.899L87.8758 107.91L89.5083 106.899C89.4826 106.858 89.4716 106.809 89.477 106.76L89.4776 106.754L91.124 91.5947L91.3551 89.4674H89.2152L76.6214 89.4674L76.6185 89.4674C76.5789 89.4674 76.54 89.4567 76.506 89.4363C76.472 89.4159 76.4442 89.3867 76.4256 89.3517C76.407 89.3167 76.3982 89.2773 76.4003 89.2377C76.4024 89.1981 76.4152 89.1598 76.4374 89.127L76.4374 89.127L76.4428 89.119L93.3077 63.8964C93.3082 63.8957 93.3086 63.8951 93.3091 63.8945C93.3362 63.8551 93.3756 63.8258 93.4211 63.811C93.4652 63.7967 93.5127 63.7968 93.5566 63.8113C93.5978 63.828 93.633 63.857 93.6573 63.8945C93.6791 63.9279 93.6911 63.9665 93.6924 64.0061L92.0531 79.2077L91.8238 81.3336H93.962L106.556 81.3336L106.559 81.3336C106.598 81.3335 106.637 81.3443 106.671 81.3647C106.705 81.385 106.733 81.4143 106.752 81.4493C106.77 81.4843 106.779 81.5237 106.777 81.5633C106.775 81.6028 106.762 81.6411 106.74 81.6739L106.734 81.6819L89.8696 106.904C89.8692 106.905 89.8688 106.906 89.8684 106.906C89.8485 106.935 89.822 106.959 89.7911 106.975L90.6753 108.643L89.791 106.975C89.7595 106.992 89.7243 107 89.6885 107Z" fill="white" stroke="#535353" stroke-width="3.84"/>
</g>
<defs>
<filter id="filter0_ddd_75_23449" x="0.559994" y="0.055994" width="356.16" height="247.296" filterUnits="userSpaceOnUse" color-interpolation-filters="sRGB">
<feFlood flood-opacity="0" result="BackgroundImageFix"/>
<feColorMatrix in="SourceAlpha" type="matrix" values="0 0 0 0 0 0 0 0 0 0 0 0 0 0 0 0 0 0 127 0" result="hardAlpha"/>
<feOffset/>
<feGaussianBlur stdDeviation="0.624"/>
<feComposite in2="hardAlpha" operator="out"/>
<feColorMatrix type="matrix" values="0 0 0 0 0 0 0 0 0 0 0 0 0 0 0 0 0 0 0.3 0"/>
<feBlend mode="normal" in2="BackgroundImageFix" result="effect1_dropShadow_75_23449"/>
<feColorMatrix in="SourceAlpha" type="matrix" values="0 0 0 0 0 0 0 0 0 0 0 0 0 0 0 0 0 0 127 0" result="hardAlpha"/>
<feOffset dy="2.496"/>
<feGaussianBlur stdDeviation="18.72"/>
<feComposite in2="hardAlpha" operator="out"/>
<feColorMatrix type="matrix" values="0 0 0 0 0 0 0 0 0 0 0 0 0 0 0 0 0 0 0.08 0"/>
<feBlend mode="normal" in2="effect1_dropShadow_75_23449" result="effect2_dropShadow_75_23449"/>
<feColorMatrix in="SourceAlpha" type="matrix" values="0 0 0 0 0 0 0 0 0 0 0 0 0 0 0 0 0 0 127 0" result="hardAlpha"/>
<feOffset/>
<feGaussianBlur stdDeviation="9.36"/>
<feComposite in2="hardAlpha" operator="out"/>
<feColorMatrix type="matrix" values="0 0 0 0 0 0 0 0 0 0 0 0 0 0 0 0 0 0 0.03 0"/>
<feBlend mode="normal" in2="effect2_dropShadow_75_23449" result="effect3_dropShadow_75_23449"/>
<feBlend mode="normal" in="SourceGraphic" in2="effect3_dropShadow_75_23449" result="shape"/>
</filter>
</defs>
</svg>
