<svg width="179" height="62" viewBox="0 0 179 62" fill="none" xmlns="http://www.w3.org/2000/svg">
<path d="M55.8472 35.3635C55.8472 37.3014 57.2374 38.2704 60.018 38.2704C62.8266 38.2704 64.2309 37.3997 64.2309 35.6584C64.2309 34.7316 63.7534 33.9732 62.7985 33.3834C61.8436 32.7936 60.678 32.3021 59.3018 31.9089C57.9536 31.5157 56.5914 31.0663 55.2152 30.5608C53.8671 30.0271 52.7155 29.2126 51.7606 28.1173C50.8057 26.9938 50.3282 25.6035 50.3282 23.9465C50.3282 16.8968 54.8641 13.372 63.936 13.372C67.2502 13.372 69.7498 14.0039 71.435 15.2678C73.1483 16.5036 74.0049 18.2309 74.0049 20.4497C74.0049 21.2642 73.8925 22.0506 73.6678 22.809C73.4712 23.5392 73.2606 24.0588 73.0359 24.3677L72.6989 24.8733H65.242C65.8599 24.2273 66.1688 23.4128 66.1688 22.4298C66.1688 20.6042 64.9752 19.6914 62.5878 19.6914C59.5826 19.6914 58.08 20.6463 58.08 22.5562C58.08 23.5111 58.5575 24.2694 59.5124 24.8312C60.4673 25.3929 61.6189 25.8423 62.967 26.1793C64.3432 26.4883 65.7195 26.8815 67.0957 27.3589C68.4719 27.8364 69.6375 28.6368 70.5924 29.7603C71.5473 30.8557 72.0248 32.2881 72.0248 34.0575C72.0248 37.6244 70.9575 40.2786 68.823 42.0199C66.6884 43.7332 63.4023 44.5898 58.9647 44.5898C54.5271 44.5898 51.4938 43.8034 49.8648 42.2306C48.6571 41.0509 48.0532 39.4219 48.0532 37.3436C48.0532 36.5572 48.1375 35.7005 48.306 34.7737L48.4324 34.0996H56.0157L55.9314 34.6052C55.8752 34.886 55.8472 35.1388 55.8472 35.3635ZM94.3296 44H75.1187L80.4691 13.6669H88.0524L83.8816 37.4278H95.5093L94.3296 44ZM112.704 44L112.956 37.3857H105.921L103.856 44H95.8098L106.637 13.6669H120.54L120.708 44H112.704ZM110.976 21.0395L107.648 31.7404H113.167L113.63 21.0395H110.976ZM152.305 20.2391H141.942L137.771 44H130.145L134.316 20.2391H123.91L125.09 13.6669H153.485L152.305 20.2391ZM172.75 44H151.601L156.952 13.6669H178.101L176.921 20.2391H163.356L162.387 25.9265H173.593L172.413 32.4987H161.207L160.364 37.4278H173.93L172.75 44Z" fill="black"/>
<path fill-rule="evenodd" clip-rule="evenodd" d="M7.92335 12.8805C7.92335 12.3942 7.52914 12 7.04285 12H3.24C1.4506 12 0 13.4506 0 15.24V44.0624C0 45.8518 1.4506 47.3024 3.24 47.3024H28.4537C30.2431 47.3024 31.6937 45.8518 31.6937 44.0624V15.24C31.6937 13.4506 30.2431 12 28.4537 12H24.6507C24.1644 12 23.7702 12.3942 23.7702 12.8805C23.7702 14.3428 22.4399 15.5282 20.7989 15.5282H10.8946C9.25363 15.5282 7.92335 14.3428 7.92335 12.8805Z" fill="#06929B" fill-opacity="0.46"/>
<rect x="5.94324" y="24.3555" width="9.90427" height="3.53024" rx="1.62" fill="white"/>
<rect x="5.94324" y="31.4165" width="17.8277" height="3.53024" rx="1.62" fill="white"/>
<rect x="5.67017" y="11.9998" width="20.25" height="4.86" fill="#06929B" fill-opacity="0.46"/>
<path fill-rule="evenodd" clip-rule="evenodd" d="M12.9233 8.8805C12.9233 8.39421 12.5291 8 12.0429 8H8.24C6.4506 8 5 9.4506 5 11.24V40.0624C5 41.8518 6.4506 43.3024 8.24 43.3024H33.4537C35.2431 43.3024 36.6937 41.8518 36.6937 40.0624V11.24C36.6937 9.4506 35.2431 8 33.4537 8H29.6507C29.1644 8 28.7702 8.39421 28.7702 8.8805C28.7702 10.3428 27.4399 11.5282 25.7989 11.5282H15.8946C14.2536 11.5282 12.9233 10.3428 12.9233 8.8805Z" fill="#007585"/>
<rect x="10.9432" y="20.3555" width="9.90427" height="3.53024" rx="1.62" fill="white"/>
<rect x="10.9432" y="27.4165" width="17.8277" height="3.53024" rx="1.62" fill="white"/>
<rect x="10.6702" y="7.99976" width="20.25" height="4.86" fill="#007585"/>
</svg>
